# xmcd
#
# Track frame offsets:
#	150
#	14692
#	29001
#	42865
#	59042
#	74331
#	88463
#	105235
#	122521
#	135454
#	150950
#	167674
#	185731
#	201095
#	216825
#	230133
#	245158
#	259079
#
# Disc length: 3643 seconds
#
# Revision: 0
# Processed by: cddbd v1.5.2PL0 Copyright (c) Steve Scherf et al.
# Submitted via: audiograbber 1.83.01
#
DISCID=0c0e3912
DTITLE=Various Artist - Promo Only Country December 2018
DYEAR=2018
DGENRE=Country
TTITLE0=Brothers Osbourne - I Don't Remember Me (Before You)
TTITLE1=Kelsea Ballerini - Miss Me More
TTITLE2=Montgomery Gentry - Drink Along Song
TTITLE3=Denny Strickland - Don't You Wanna
TTITLE4=Walker McGuire - Growin' Up
TTITLE5=Noe Palma - I'll Be Your Whiskey
TTITLE6=Dillon Carmichael - Dancing Away With My Heart
TTITLE7=Kid Rock - Po-Dunk (Clean Edit)
TTITLE8=Pistol Annies - Got My Name Changed Back
TTITLE9=Gretchen Wilson - Stacy
TTITLE10=Lauren Alaina - Ladies In The 90s
TTITLE11=Josh Gracin - Good For You
TTITLE12=Levi Hart - Home Anymore
TTITLE13=Tim McGraw - Neon Church (Clean Edit)
TTITLE14=RaeLynn - Tailgate
TTITLE15=Josh Turner - I Saw The Light
TTITLE16=Old Dominion - Make It Sweet
TTITLE17=J.D. Shelburne - One Less Girl
EXTD=
EXTT0=
EXTT1=
EXTT2=
EXTT3=
EXTT4=
EXTT5=
EXTT6=
EXTT7=
EXTT8=
EXTT9=
EXTT10=
EXTT11=
EXTT12=
EXTT13=
EXTT14=
EXTT15=
EXTT16=
EXTT17=
PLAYORDER=
